<?xml version="1.0" encoding="utf-8"?>
<!-- Generator: Adobe Illustrator 16.0.0, SVG Export Plug-In . SVG Version: 6.00 Build 0)  -->
<!DOCTYPE svg PUBLIC "-//W3C//DTD SVG 1.1//EN" "http://www.w3.org/Graphics/SVG/1.1/DTD/svg11.dtd">
<svg version="1.1" id="Layer_1" xmlns="http://www.w3.org/2000/svg" xmlns:xlink="http://www.w3.org/1999/xlink" x="0px" y="0px"
	 width="225px" height="225.334px" viewBox="0 0 225 225.334" enable-background="new 0 0 225 225.334" xml:space="preserve">
<g>
	<path fill="none" d="M58.052,43.365c-6.706,0-13.985,0.745-21.729,2.22v117.919c15.028,0.065,40.218,2.021,64.528,12.294V61.887
		C97.723,56.889,86.619,43.365,58.052,43.365z"/>
	<path fill="none" d="M125.852,61.847v113.952c24.31-10.274,49.5-12.228,64.528-12.294V45.585c-7.745-1.475-15.024-2.22-21.729-2.22
		C139.968,43.365,128.859,57.047,125.852,61.847z"/>
	<path d="M205.951,23.451c-13.314-3.375-25.865-5.086-37.301-5.086c-28.312,0-45.457,10.227-55.299,19.749
		c-9.844-9.522-26.987-19.749-55.299-19.749c-11.436,0-23.985,1.711-37.3,5.086l-9.429,2.39v150.621l0.021,13.811l13.744-1.375
		c0.04-0.004,4.026-0.396,10.422-0.396c14.875,0,42.159,2.062,65.341,15.08c1.892,1.062,3.76,2.188,5.588,3.401l6.913,4.589
		l6.912-4.589c1.828-1.213,3.696-2.34,5.588-3.401c23.183-13.019,50.467-15.08,65.342-15.08c6.396,0,10.383,0.392,10.402,0.394
		l13.785,1.424V25.841L205.951,23.451z M100.851,175.799c-24.31-10.274-49.5-12.228-64.528-12.294V45.585
		c7.745-1.475,15.023-2.22,21.729-2.22c28.566,0,39.671,13.523,42.799,18.521V175.799z M190.38,163.504
		c-15.028,0.065-40.219,2.021-64.528,12.294V61.847c3.008-4.8,14.116-18.482,42.799-18.482c6.707,0,13.984,0.745,21.729,2.22
		V163.504z"/>
</g>
</svg>
