<?xml version="1.0" encoding="utf-8"?>
<!-- Generator: Adobe Illustrator 16.0.0, SVG Export Plug-In . SVG Version: 6.00 Build 0)  -->
<!DOCTYPE svg PUBLIC "-//W3C//DTD SVG 1.1//EN" "http://www.w3.org/Graphics/SVG/1.1/DTD/svg11.dtd">
<svg version="1.1" id="Layer_1" xmlns="http://www.w3.org/2000/svg" xmlns:xlink="http://www.w3.org/1999/xlink" x="0px" y="0px"
	 width="225px" height="225.334px" viewBox="0 0 225 225.334" enable-background="new 0 0 225 225.334" xml:space="preserve">
<g>
	<path fill="none" d="M111,37.667c-41.08,0-74.5,33.42-74.5,74.5c0,41.079,33.42,74.5,74.5,74.5c41.079,0,74.5-33.421,74.5-74.5
		C185.5,71.087,152.079,37.667,111,37.667z M124,122.43l-50.914,34.975L61.762,140.92L104,111.904v-55.07h20V122.43z"/>
	<path d="M111,12.667c-54.864,0-99.5,44.636-99.5,99.5s44.636,99.5,99.5,99.5s99.5-44.636,99.5-99.5S165.864,12.667,111,12.667z
		 M111,186.667c-41.08,0-74.5-33.421-74.5-74.5c0-41.08,33.42-74.5,74.5-74.5c41.079,0,74.5,33.42,74.5,74.5
		C185.5,153.246,152.079,186.667,111,186.667z"/>
	<polygon points="104,111.904 61.762,140.92 73.086,157.404 124,122.43 124,56.834 104,56.834 	"/>
</g>
</svg>
