<?xml version="1.0" encoding="utf-8"?>
<!-- Generator: Adobe Illustrator 16.0.0, SVG Export Plug-In . SVG Version: 6.00 Build 0)  -->
<!DOCTYPE svg PUBLIC "-//W3C//DTD SVG 1.1//EN" "http://www.w3.org/Graphics/SVG/1.1/DTD/svg11.dtd">
<svg version="1.1" id="Layer_1" xmlns="http://www.w3.org/2000/svg" xmlns:xlink="http://www.w3.org/1999/xlink" x="0px" y="0px"
	 width="225px" height="225.334px" viewBox="0 0 225 225.334" enable-background="new 0 0 225 225.334" xml:space="preserve">
<g>
	<path d="M135.326,10.946C79.789-3.524,22.833,29.887,8.363,85.424c-14.47,55.537,18.941,112.494,74.479,126.964
		c55.538,14.47,112.494-18.942,126.963-74.479C224.274,82.372,190.864,25.416,135.326,10.946z M87.084,196.104
		c-46.559-12.131-74.569-59.878-62.438-106.438C36.777,43.109,84.525,15.1,131.084,27.23
		c46.558,12.131,74.566,59.878,62.437,106.436C181.39,180.226,133.643,208.234,87.084,196.104z"/>
	<path d="M99.206,149.581c20.906,5.447,42.344-7.13,47.792-28.036c5.447-20.906-7.129-42.345-28.035-47.792
		c-20.906-5.447-42.345,7.13-47.792,28.035C65.723,122.694,78.3,144.134,99.206,149.581z M116.841,81.896
		c16.416,4.277,26.292,21.112,22.015,37.528c-4.277,16.417-21.112,26.292-37.528,22.015c-16.417-4.277-26.292-21.111-22.015-37.529
		C83.589,87.494,100.425,77.618,116.841,81.896z"/>
	<path d="M106.971,119.779c4.473,1.165,9.061-1.526,10.226-5.999s-1.526-9.061-5.999-10.226c-4.473-1.166-9.06,1.526-10.226,5.999
		C99.807,114.025,102.497,118.613,106.971,119.779z M110.255,107.173c2.478,0.646,3.968,3.187,3.323,5.665
		c-0.646,2.478-3.187,3.968-5.665,3.322c-2.478-0.646-3.969-3.186-3.323-5.664C105.236,108.018,107.777,106.527,110.255,107.173z"/>
	<path d="M122.5,60.174c-16.727-4.358-33.7-0.215-46.341,9.726l3.169,3.867c11.445-8.964,26.789-12.695,41.911-8.755
		c15.507,4.04,27.28,15.237,32.726,29.125l4.65-1.828C152.604,76.985,139.612,64.633,122.5,60.174z"/>
	<path d="M95.667,163.159c17.112,4.458,34.48,0.016,47.205-10.426l-3.167-3.866c-11.531,9.466-27.27,13.493-42.777,9.453
		c-15.007-3.91-26.515-14.522-32.178-27.789l-4.653,1.828C66.327,147.062,79.056,158.831,95.667,163.159z"/>
	<path d="M125.871,47.234c-20.961-5.461-42.232-0.254-58.057,12.224l3.17,3.867c14.629-11.501,34.271-16.295,53.626-11.252
		c19.765,5.149,34.78,19.397,41.757,37.083l4.651-1.828C163.476,68.207,147.24,52.802,125.871,47.234z"/>
	<path d="M52.238,135.27l-4.653,1.829c7.724,18.613,23.75,33.539,44.711,39c21.369,5.568,43.057,0.044,58.971-12.966l-3.167-3.863
		c-14.719,12.031-34.778,17.141-54.543,11.991C74.201,166.218,59.395,152.448,52.238,135.27z"/>
	<path d="M128.054,38.857c24.301,6.332,42.723,23.923,51.174,45.721l4.651-1.828c-9.019-23.234-28.659-41.982-54.564-48.731
		c-25.353-6.605-51.085-0.265-70.177,14.893l3.169,3.867C80.203,38.598,104.306,32.67,128.054,38.857z"/>
	<path d="M90.113,184.476c-23.748-6.188-41.893-23.123-50.594-44.233l-4.653,1.829c9.268,22.546,28.635,40.638,53.987,47.242
		c25.905,6.75,52.198-0.031,71.407-15.911l-3.168-3.864C139.079,184.441,114.414,190.807,90.113,184.476z"/>
</g>
</svg>
