<?xml version="1.0" encoding="utf-8"?>
<!-- Generator: Adobe Illustrator 16.0.0, SVG Export Plug-In . SVG Version: 6.00 Build 0)  -->
<!DOCTYPE svg PUBLIC "-//W3C//DTD SVG 1.1//EN" "http://www.w3.org/Graphics/SVG/1.1/DTD/svg11.dtd">
<svg version="1.1" id="Layer_1" xmlns="http://www.w3.org/2000/svg" xmlns:xlink="http://www.w3.org/1999/xlink" x="0px" y="0px"
	 width="225px" height="225.334px" viewBox="0 0 225 225.334" enable-background="new 0 0 225 225.334" xml:space="preserve">
<g>
	<polygon fill="none" points="103.522,89.834 43.372,89.834 43.372,190.34 177.627,190.34 177.627,57.085 177.627,30.667 
		103.522,30.667 	"/>
	<polygon fill="none" points="83.522,69.834 83.522,30.667 79.906,30.667 43.372,67.401 43.372,69.834 	"/>
	<path d="M69.51,5.667L18.372,57.085v135.402c0,12.621,10.231,22.853,22.853,22.853h138.55c12.621,0,22.853-10.231,22.853-22.853
		V57.085V5.667H69.51z M79.906,30.667h3.617v39.167h-40.15v-2.433L79.906,30.667z M177.627,57.085V190.34H43.372V89.834h60.15
		V30.667h74.104L177.627,57.085L177.627,57.085z"/>
</g>
</svg>
