<?xml version="1.0" encoding="utf-8"?>
<!-- Generator: Adobe Illustrator 16.0.0, SVG Export Plug-In . SVG Version: 6.00 Build 0)  -->
<!DOCTYPE svg PUBLIC "-//W3C//DTD SVG 1.1//EN" "http://www.w3.org/Graphics/SVG/1.1/DTD/svg11.dtd">
<svg version="1.1" id="Layer_1" xmlns="http://www.w3.org/2000/svg" xmlns:xlink="http://www.w3.org/1999/xlink" x="0px" y="0px"
	 width="225px" height="225.334px" viewBox="0 0 225 225.334" enable-background="new 0 0 225 225.334" xml:space="preserve">
<g>
	<polygon points="83.544,98.204 83.544,126.3 120.166,126.3 143.691,126.3 166.646,126.3 166.646,98.204 	"/>
	<polygon points="221.549,112.483 166.646,58.449 166.646,98.204 166.646,126.3 168.646,126.3 168.646,98.204 168.646,126.3 
		166.646,126.3 166.646,167.385 	"/>
	<polygon points="118.334,189.5 39,189.5 39,36.5 118.334,36.5 118.334,65.762 148.334,65.762 148.334,6.5 148.167,6.5 118.334,6.5 
		9,6.5 9,9.75 9,36.5 9,189.5 9,216.584 9,219.5 118.334,219.5 118.334,219.501 148.334,219.501 148.334,158.66 118.334,158.66 	"/>
</g>
</svg>
