<?xml version="1.0" encoding="utf-8"?>
<!-- Generator: Adobe Illustrator 16.0.0, SVG Export Plug-In . SVG Version: 6.00 Build 0)  -->
<!DOCTYPE svg PUBLIC "-//W3C//DTD SVG 1.1//EN" "http://www.w3.org/Graphics/SVG/1.1/DTD/svg11.dtd">
<svg version="1.1" id="Layer_1" xmlns="http://www.w3.org/2000/svg" xmlns:xlink="http://www.w3.org/1999/xlink" x="0px" y="0px"
	 width="225px" height="225.334px" viewBox="0 0 225 225.334" enable-background="new 0 0 225 225.334" xml:space="preserve">
<g>
	<path fill="none" d="M155.756,38.136c-7.048,0-15.829,4.918-24.726,13.849l-19.051,19.123L92.92,51.988
		c-8.902-8.935-17.686-13.854-24.737-13.854c-9.331,0-18.111,3.658-24.725,10.3c-7.76,7.788-12.032,18.163-12.032,29.217
		c0,11.048,4.273,21.423,12.032,29.216l68.514,68.76l68.517-68.763c7.755-7.792,12.028-18.168,12.028-29.213
		c0-11.051-4.272-21.426-12.03-29.214C173.869,41.795,165.086,38.136,155.756,38.136z"/>
	<path d="M198.198,30.792c-11.345-11.386-26.418-17.656-42.442-17.656c-14.143,0-28.42,7.134-42.437,21.205l-1.345,1.351
		l-1.346-1.351c-14.02-14.072-28.3-21.207-42.445-21.207c-16.029,0-31.101,6.272-42.438,17.658
		C13.288,43.295,6.427,59.937,6.427,77.651c0,17.705,6.86,34.345,19.319,46.859l75.63,75.902l10.835,10.342l8.633-8.621
		l77.358-77.628c12.455-12.514,19.314-29.154,19.314-46.854C217.518,59.941,210.657,43.3,198.198,30.792z M180.489,106.864
		l-68.517,68.763l-68.514-68.76C35.7,99.074,31.427,88.699,31.427,77.651c0-11.054,4.272-21.429,12.032-29.217
		c6.613-6.642,15.394-10.3,24.725-10.3c7.051,0,15.835,4.919,24.737,13.854l19.059,19.12l19.051-19.123
		c8.896-8.93,17.678-13.849,24.726-13.849c9.33,0,18.113,3.659,24.731,10.3c7.758,7.789,12.03,18.164,12.03,29.214
		C192.518,88.695,188.244,99.072,180.489,106.864z"/>
</g>
</svg>
