<?xml version="1.0" encoding="utf-8"?>
<!-- Generator: Adobe Illustrator 16.0.0, SVG Export Plug-In . SVG Version: 6.00 Build 0)  -->
<!DOCTYPE svg PUBLIC "-//W3C//DTD SVG 1.1//EN" "http://www.w3.org/Graphics/SVG/1.1/DTD/svg11.dtd">
<svg version="1.1" id="Layer_1" xmlns="http://www.w3.org/2000/svg" xmlns:xlink="http://www.w3.org/1999/xlink" x="0px" y="0px"
	 width="225px" height="225.334px" viewBox="0 0 225 225.334" enable-background="new 0 0 225 225.334" xml:space="preserve">
<g>
	<rect x="149.8" y="131.577" fill="none" width="32.992" height="32.079"/>
	<rect x="38.641" y="162.502" fill="none" width="32.992" height="32.079"/>
	<path d="M207.463,2.667L68.572,53.049v84.783H35.313c-11.77,0-21.344,9.573-21.344,21.343v38.733
		c0,11.769,9.574,21.344,21.344,21.344h39.647c11.77,0,21.343-9.575,21.343-21.344v-38.733c0-0.074-0.01-0.146-0.011-0.219h0.064
		V72.527l83.322-30.225v64.604h-33.206c-11.771,0-21.344,9.575-21.344,21.344v38.733c0,11.77,9.573,21.344,21.344,21.344h39.646
		c11.769,0,21.344-9.574,21.344-21.344V128.25c0-0.192-0.024-0.38-0.029-0.571h0.029V2.667z M71.633,194.581H38.641v-32.079h32.992
		V194.581z M182.792,163.656H149.8v-32.079h32.992V163.656z"/>
</g>
</svg>
