<?xml version="1.0" encoding="utf-8"?>
<!-- Generator: Adobe Illustrator 16.0.0, SVG Export Plug-In . SVG Version: 6.00 Build 0)  -->
<!DOCTYPE svg PUBLIC "-//W3C//DTD SVG 1.1//EN" "http://www.w3.org/Graphics/SVG/1.1/DTD/svg11.dtd">
<svg version="1.1" id="Layer_1" xmlns="http://www.w3.org/2000/svg" xmlns:xlink="http://www.w3.org/1999/xlink" x="0px" y="0px"
	 width="225px" height="225.334px" viewBox="0 0 225 225.334" enable-background="new 0 0 225 225.334" xml:space="preserve">
<g>
	<path fill="none" d="M112.5,34.167c-42.872,0-77.75,34.878-77.75,77.75c0,42.871,34.878,77.75,77.75,77.75
		c42.871,0,77.75-34.879,77.75-77.75C190.25,69.045,155.371,34.167,112.5,34.167z M157.339,138.828l-17.678,17.678l-26.911-26.911
		l-26.911,26.911l-17.678-17.678l26.911-26.911L68.161,85.006l17.678-17.678l26.911,26.911l26.911-26.911l17.678,17.678
		l-26.911,26.911L157.339,138.828z"/>
	<path d="M112.5,2.167C51.983,2.167,2.75,51.4,2.75,111.917s49.233,109.75,109.75,109.75s109.75-49.233,109.75-109.75
		S173.017,2.167,112.5,2.167z M112.5,189.667c-42.872,0-77.75-34.879-77.75-77.75c0-42.872,34.878-77.75,77.75-77.75
		c42.871,0,77.75,34.878,77.75,77.75C190.25,154.788,155.371,189.667,112.5,189.667z"/>
	<polygon points="139.661,67.328 112.75,94.239 85.839,67.328 68.161,85.006 95.072,111.917 68.161,138.828 85.839,156.506 
		112.75,129.595 139.661,156.506 157.339,138.828 130.428,111.917 157.339,85.006 	"/>
</g>
</svg>
