<?xml version="1.0" encoding="utf-8"?>
<!-- Generator: Adobe Illustrator 16.0.0, SVG Export Plug-In . SVG Version: 6.00 Build 0)  -->
<!DOCTYPE svg PUBLIC "-//W3C//DTD SVG 1.1//EN" "http://www.w3.org/Graphics/SVG/1.1/DTD/svg11.dtd">
<svg version="1.1" id="Layer_1" xmlns="http://www.w3.org/2000/svg" xmlns:xlink="http://www.w3.org/1999/xlink" x="0px" y="0px"
	 width="225px" height="225.334px" viewBox="0 0 225 225.334" enable-background="new 0 0 225 225.334" xml:space="preserve">
<g>
	<path fill="none" d="M160.428,92.268c6.234,0,11.303-4.818,11.303-10.74c0-5.922-5.07-10.74-11.303-10.74
		s-11.301,4.817-11.301,10.74C149.127,87.451,154.198,92.268,160.428,92.268z"/>
	<path fill="none" d="M71.026,76.374l6.148-6.278l47.571,66.6l25.817-25.741l39.885,40.075V50.555H34.553v62.365
		C44.611,103.098,58.302,89.366,71.026,76.374z M160.428,59.003c12.731,0,23.086,10.104,23.086,22.524
		c0,12.42-10.356,22.524-23.086,22.524s-23.085-10.103-23.085-22.524C137.343,69.107,147.699,59.003,160.428,59.003z"/>
	<path fill="none" d="M122.848,159.388L75.391,92.943c-4.969,5.038-12.319,12.464-19.682,19.797
		C48.123,120.293,42,126.281,37.51,130.535c-1.062,1.008-2.04,1.933-2.957,2.789v41.454h155.895h0.001v-2.866l-39.926-40.117
		L122.848,159.388z"/>
	<path d="M201.495,28.459H23.505c-6.102,0-11.048,4.946-11.048,11.048v146.32c0,6.102,4.946,11.048,11.048,11.048h177.99
		c6.103,0,11.048-4.946,11.048-11.048V39.507C212.543,33.405,207.598,28.459,201.495,28.459z M34.553,50.555h155.894V151.03
		l-39.885-40.075l-25.817,25.741l-47.571-66.6l-6.148,6.278c-12.724,12.992-26.415,26.724-36.473,36.546V50.555z M190.449,174.778
		L190.449,174.778H34.553v-41.454c0.917-0.856,1.895-1.781,2.957-2.789c4.49-4.254,10.613-10.242,18.199-17.795
		c7.363-7.333,14.713-14.759,19.682-19.797l47.457,66.445l27.676-27.593l39.926,40.117V174.778z"/>
	<path d="M160.428,104.051c12.729,0,23.086-10.104,23.086-22.524c0-12.42-10.354-22.524-23.086-22.524
		c-12.729,0-23.085,10.104-23.085,22.524C137.343,93.948,147.698,104.051,160.428,104.051z M160.428,70.788
		c6.232,0,11.303,4.818,11.303,10.74c0,5.922-5.068,10.74-11.303,10.74c-6.229,0-11.301-4.817-11.301-10.74
		C149.127,75.605,154.195,70.788,160.428,70.788z"/>
</g>
</svg>
