<?xml version="1.0" encoding="utf-8"?>
<!-- Generator: Adobe Illustrator 16.0.0, SVG Export Plug-In . SVG Version: 6.00 Build 0)  -->
<!DOCTYPE svg PUBLIC "-//W3C//DTD SVG 1.1//EN" "http://www.w3.org/Graphics/SVG/1.1/DTD/svg11.dtd">
<svg version="1.1" id="Layer_1" xmlns="http://www.w3.org/2000/svg" xmlns:xlink="http://www.w3.org/1999/xlink" x="0px" y="0px"
	 width="225px" height="225.334px" viewBox="0 0 225 225.334" enable-background="new 0 0 225 225.334" xml:space="preserve">
<g>
	<path fill="none" d="M29.533,127.199c-2.462,2.461-2.829,5.335-2.829,6.828s0.367,4.366,2.827,6.825l52.827,52.831
		c2.46,2.459,5.334,2.827,6.828,2.827c1.495,0,4.369-0.368,6.829-2.828l98.327-98.328V28.871l-66.482,0L29.533,127.199z
		 M153.501,50.501c9.849,0,17.833,7.984,17.833,17.833s-7.984,17.833-17.833,17.833c-9.85,0-17.834-7.984-17.834-17.833
		S143.651,50.501,153.501,50.501z"/>
	<path d="M117.504,3.871L11.855,109.521c-13.535,13.533-13.535,35.479,0,49.011L64.68,211.36c6.767,6.767,15.637,10.15,24.506,10.15
		s17.74-3.384,24.506-10.15l105.649-105.65V3.871L117.504,3.871z M194.342,95.355l-98.327,98.328
		c-2.46,2.46-5.334,2.828-6.829,2.828c-1.494,0-4.368-0.368-6.828-2.827l-52.827-52.831c-2.459-2.459-2.827-5.332-2.827-6.825
		s0.367-4.367,2.829-6.828l98.326-98.328l66.482,0V95.355z"/>
	<circle cx="153.501" cy="68.334" r="17.833"/>
</g>
</svg>
