<?xml version="1.0" encoding="utf-8"?>
<!-- Generator: Adobe Illustrator 16.0.0, SVG Export Plug-In . SVG Version: 6.00 Build 0)  -->
<!DOCTYPE svg PUBLIC "-//W3C//DTD SVG 1.1//EN" "http://www.w3.org/Graphics/SVG/1.1/DTD/svg11.dtd">
<svg version="1.1" id="Layer_1" xmlns="http://www.w3.org/2000/svg" xmlns:xlink="http://www.w3.org/1999/xlink" x="0px" y="0px"
	 width="225px" height="225.334px" viewBox="0 0 225 225.334" enable-background="new 0 0 225 225.334" xml:space="preserve">
<path d="M117.504,3.871L11.855,109.521c-13.535,13.533-13.535,35.479,0,49.011L64.68,211.36
	c6.767,6.767,15.637,10.148,24.506,10.148s17.74-3.384,24.505-10.148L219.34,105.71V3.871H117.504z M96.015,193.683
	c-2.46,2.461-5.334,2.828-6.829,2.828c-1.494,0-4.368-0.367-6.828-2.826l-52.827-52.832c-2.459-2.459-2.827-5.332-2.827-6.824
	s0.367-4.366,2.829-6.827l98.326-98.328h66.48v66.483h0.001L96.015,193.683z M153.501,50.501c9.849,0,17.833,7.984,17.833,17.833
	s-7.984,17.833-17.833,17.833s-17.833-7.984-17.833-17.833S143.652,50.501,153.501,50.501z"/>
</svg>
