<?xml version="1.0" encoding="utf-8"?>
<!-- Generator: Adobe Illustrator 16.0.0, SVG Export Plug-In . SVG Version: 6.00 Build 0)  -->
<!DOCTYPE svg PUBLIC "-//W3C//DTD SVG 1.1//EN" "http://www.w3.org/Graphics/SVG/1.1/DTD/svg11.dtd">
<svg version="1.1" id="Layer_1" xmlns="http://www.w3.org/2000/svg" xmlns:xlink="http://www.w3.org/1999/xlink" x="0px" y="0px"
	 width="225px" height="225.334px" viewBox="0 0 225 225.334" enable-background="new 0 0 225 225.334" xml:space="preserve">
<g>
	<path fill="none" d="M170.595,27.875H55.987c-14.031,0-25.405,10.896-25.405,24.336v52.46c0,13.44,11.374,24.336,25.405,24.336
		h40.507l54.48,42.453v-42.453h19.62c14.03,0,25.405-10.896,25.405-24.336v-52.46C196,38.771,184.625,27.875,170.595,27.875z"/>
	<path d="M170.595,4.875H55.987c-26.691,0-48.405,21.235-48.405,47.336v52.46c0,26.102,21.714,47.336,48.405,47.336h32.604
		l48.247,37.596l37.137,28.938V171.46v-19.567c25.121-1.701,45.025-22.23,45.025-47.222v-52.46
		C219,26.109,197.285,4.875,170.595,4.875z M196,104.671c0,13.44-11.375,24.336-25.405,24.336h-19.62v42.453l-54.48-42.453H55.987
		c-14.031,0-25.405-10.896-25.405-24.336v-52.46c0-13.44,11.374-24.336,25.405-24.336h114.607c14.03,0,25.405,10.896,25.405,24.336
		V104.671z"/>
</g>
</svg>
