<?xml version="1.0" encoding="utf-8"?>
<!-- Generator: Adobe Illustrator 16.0.0, SVG Export Plug-In . SVG Version: 6.00 Build 0)  -->
<!DOCTYPE svg PUBLIC "-//W3C//DTD SVG 1.1//EN" "http://www.w3.org/Graphics/SVG/1.1/DTD/svg11.dtd">
<svg version="1.1" id="Layer_1" xmlns="http://www.w3.org/2000/svg" xmlns:xlink="http://www.w3.org/1999/xlink" x="0px" y="0px"
	 width="225px" height="225.334px" viewBox="0 0 225 225.334" enable-background="new 0 0 225 225.334" xml:space="preserve">
<path d="M95.279,113.649h32.542c19.615,0,35.576-15.959,35.576-35.576v-31.63c0-19.617-15.961-35.576-35.576-35.576H95.279
	c-19.617,0-35.576,15.959-35.576,35.576v31.63C59.703,97.69,75.662,113.649,95.279,113.649z M86.176,46.443
	c0-5.028,4.076-9.103,9.103-9.103h32.542c5.027,0,9.103,4.075,9.103,9.103v31.63c0,5.028-4.073,9.102-9.103,9.102H95.279
	c-5.027,0-9.103-4.074-9.103-9.102V46.443z M217.654,204.671l0.089-0.035l-31.541-78.854h-73.418h-1.198H38.168L6.627,204.635
	l0.088,0.035l-3.848,9.795h28.338l0.003,0.002v-0.002h0.25l-0.215-0.087l24.848-62.122h55.495h1.198h55.493l24.851,62.123
	l-0.217,0.087h0.252v0.001l0.002-0.001h28.338L217.654,204.671z"/>
</svg>
