<?xml version="1.0" encoding="utf-8"?>
<!-- Generator: Adobe Illustrator 16.0.0, SVG Export Plug-In . SVG Version: 6.00 Build 0)  -->
<!DOCTYPE svg PUBLIC "-//W3C//DTD SVG 1.1//EN" "http://www.w3.org/Graphics/SVG/1.1/DTD/svg11.dtd">
<svg version="1.1" id="Layer_1" xmlns="http://www.w3.org/2000/svg" xmlns:xlink="http://www.w3.org/1999/xlink" x="0px" y="0px"
	 width="225px" height="225.334px" viewBox="0 0 225 225.334" enable-background="new 0 0 225 225.334" xml:space="preserve">
<g>
	<path fill="none" d="M95.279,87.175h32.541c5.028,0,9.103-4.074,9.103-9.102v-31.63c0-5.028-4.074-9.103-9.103-9.103H95.279
		c-5.027,0-9.103,4.075-9.103,9.103v31.63C86.176,83.101,90.252,87.175,95.279,87.175z"/>
	<path d="M95.279,113.649h32.541c19.616,0,35.576-15.959,35.576-35.576v-31.63c0-19.617-15.96-35.576-35.576-35.576H95.279
		c-19.617,0-35.576,15.959-35.576,35.576v31.63C59.703,97.69,75.662,113.649,95.279,113.649z M86.176,46.443
		c0-5.028,4.076-9.103,9.103-9.103h32.541c5.028,0,9.103,4.075,9.103,9.103v31.63c0,5.028-4.074,9.102-9.103,9.102H95.279
		c-5.027,0-9.103-4.074-9.103-9.102V46.443z"/>
	<polygon points="217.655,204.671 217.743,204.636 186.202,125.782 112.784,125.782 111.586,125.782 38.168,125.782 6.627,204.635 
		6.715,204.67 2.867,214.465 31.205,214.465 31.208,214.467 31.208,214.465 31.458,214.465 31.243,214.378 56.091,152.256 
		111.586,152.256 112.784,152.256 168.278,152.256 193.128,214.379 192.911,214.466 193.163,214.466 193.163,214.467 
		193.165,214.466 221.503,214.466 	"/>
</g>
</svg>
